<svg xmlns="http://www.w3.org/2000/svg" width="6" height="5" viewBox="0 0 6 5" fill="none">
  <path d="M5.46909 2.06376C5.27527 1.65544 5.04463 1.32244 4.77717 1.06475L4.49665 1.34526C4.7254 1.56387 4.92465 1.84984 5.09694 2.206C4.63823 3.15539 3.98711 3.60638 3.09726 3.60638C2.83016 3.60638 2.58414 3.56525 2.3592 3.48299L2.05525 3.78694C2.36767 3.93121 2.71501 4.00334 3.09726 4.00334C4.15692 4.00334 4.94753 3.45146 5.46909 2.34769C5.49005 2.3033 5.50093 2.25482 5.50093 2.20573C5.50093 2.15663 5.49005 2.10815 5.46909 2.06376ZM5.1186 0.295973L4.88357 0.0606653C4.87948 0.0565644 4.87461 0.0533112 4.86926 0.0510916C4.8639 0.048872 4.85816 0.0477295 4.85237 0.0477295C4.84657 0.0477295 4.84083 0.048872 4.83548 0.0510916C4.83012 0.0533112 4.82526 0.0565644 4.82116 0.0606653L4.21817 0.663379C3.88572 0.49357 3.51208 0.408665 3.09726 0.408665C2.03761 0.408665 1.247 0.960546 0.72544 2.06431C0.704476 2.1087 0.693604 2.15718 0.693604 2.20628C0.693604 2.25537 0.704476 2.30385 0.72544 2.34824C0.933806 2.7871 1.18466 3.13887 1.47801 3.40355L0.894588 3.9868C0.886323 3.99507 0.88168 4.00628 0.88168 4.01798C0.88168 4.02967 0.886323 4.04088 0.894588 4.04915L1.12995 4.28452C1.13822 4.29278 1.14944 4.29742 1.16113 4.29742C1.17282 4.29742 1.18404 4.29278 1.19231 4.28452L5.1186 0.358384C5.12271 0.354287 5.12596 0.349423 5.12818 0.344068C5.1304 0.338714 5.13154 0.332975 5.13154 0.327178C5.13154 0.321382 5.1304 0.315643 5.12818 0.310288C5.12596 0.304934 5.12271 0.300069 5.1186 0.295973ZM1.09759 2.206C1.55685 1.25661 2.20797 0.805623 3.09726 0.805623C3.39796 0.805623 3.67136 0.857227 3.91941 0.962145L3.53182 1.34973C3.34827 1.25179 3.13809 1.21545 2.93231 1.24605C2.72652 1.27665 2.53602 1.37259 2.38891 1.5197C2.2418 1.66681 2.14586 1.85731 2.11526 2.0631C2.08465 2.26888 2.121 2.47906 2.21894 2.66261L1.75902 3.12253C1.50447 2.89787 1.28504 2.59348 1.09759 2.206ZM2.45772 2.206C2.45782 2.10878 2.48084 2.01296 2.52493 1.92631C2.56902 1.83966 2.63293 1.76464 2.71146 1.70733C2.78999 1.65002 2.88093 1.61204 2.9769 1.59648C3.07287 1.58093 3.17115 1.58822 3.26376 1.61779L2.487 2.39456C2.46753 2.3336 2.45765 2.26999 2.45772 2.206Z" fill="black" fill-opacity="0.44"/>
  <path d="M3.0752 2.82346C3.05613 2.82346 3.03733 2.82258 3.01869 2.82087L2.72748 3.11208C2.90263 3.17916 3.09346 3.19406 3.27691 3.155C3.46035 3.11593 3.62855 3.02456 3.76117 2.89194C3.8938 2.75932 3.98516 2.59112 4.02423 2.40767C4.0633 2.22423 4.04839 2.0334 3.98131 1.85825L3.6901 2.14946C3.69181 2.16809 3.69269 2.18689 3.69269 2.20597C3.69274 2.28707 3.67679 2.36739 3.64578 2.44232C3.61476 2.51726 3.56928 2.58535 3.51193 2.6427C3.45458 2.70005 3.38649 2.74553 3.31156 2.77654C3.23662 2.80756 3.1563 2.8235 3.0752 2.82346Z" fill="black" fill-opacity="0.44"/>
</svg>