<svg width="6" height="7" viewBox="0 0 6 7" fill="none" xmlns="http://www.w3.org/2000/svg">
<g id="person_24px">
<path id="icon/social/person_24px" fill-rule="evenodd" clip-rule="evenodd" d="M3.09727 1.32309C2.56606 1.32309 2.1358 1.76818 2.1358 2.31771C2.1358 2.86724 2.56606 3.31233 3.09727 3.31233C3.62848 3.31233 4.05873 2.86724 4.05873 2.31771C4.05873 1.76818 3.62848 1.32309 3.09727 1.32309ZM3.57797 2.31771C3.57797 2.04419 3.36164 1.8204 3.09724 1.8204C2.83284 1.8204 2.61651 2.04419 2.61651 2.31771C2.61651 2.59123 2.83284 2.81502 3.09724 2.81502C3.36164 2.81502 3.57797 2.59123 3.57797 2.31771ZM4.53944 4.80428C4.49137 4.62773 3.74623 4.30697 3.09724 4.30697C2.45066 4.30697 1.71033 4.62525 1.65504 4.80428H4.53944ZM1.17429 4.80431C1.17429 4.14289 2.45544 3.80969 3.09722 3.80969C3.73899 3.80969 5.02014 4.14289 5.02014 4.80431V5.30162H1.17429V4.80431Z" fill="black" fill-opacity="0.44"/>
</g>
</svg>
